<svg width="48" height="48" viewBox="0 0 48 48" fill="none" xmlns="http://www.w3.org/2000/svg">
<g opacity="0.22">
<mask id="mask0_322_111" style="mask-type:luminance" maskUnits="userSpaceOnUse" x="0" y="10" width="48" height="29">
<path d="M48 10.5H0V38.3478H48V10.5Z" fill="white"/>
</mask>
<g mask="url(#mask0_322_111)">
<path d="M48 37.6259C46.254 38.0697 45.174 37.6452 44.2053 36.1905L37.3142 26.6566L36.318 25.3365L28.2705 36.2221C27.351 37.5318 26.3867 38.1013 24.6705 37.638L34.9755 23.805L25.3815 11.3098C27.0313 10.989 28.1715 11.1521 29.1839 12.6299L36.3313 22.2826L43.5314 12.6824C44.4537 11.3728 45.4455 10.8752 47.1015 11.3576L43.3815 16.2897L38.3415 22.8521C37.7414 23.6021 37.8239 24.1153 38.3762 24.8392L48 37.6259ZM0.01224 23.5739L0.855002 19.4278C3.15002 11.2226 12.555 7.81307 19.0412 12.883C22.8317 15.8649 23.7738 20.0831 23.5862 24.8081H2.22012C1.89936 33.3131 8.02081 38.4459 15.8249 35.8272C18.5624 34.9078 20.1748 32.764 20.982 30.0823C21.3916 28.7385 22.0692 28.5282 23.3324 28.9124C22.6877 32.2665 21.2325 35.0684 18.1574 36.822C13.563 39.4467 7.00453 38.5978 3.55501 34.95C1.49976 32.8332 0.650882 30.1515 0.27 27.2833C0.20988 26.8092 0.0900003 26.3578 0 25.9035C0.00792001 25.1272 0.01224 24.35 0.01224 23.5739ZM2.259 23.004H21.567C21.441 16.8542 17.6116 12.4859 12.3779 12.4488C6.63301 12.4038 2.50812 16.668 2.259 23.004Z" fill="black"/>
</g>
</g>
</svg>
