<svg width="46" height="38" viewBox="0 0 46 38" fill="none" xmlns="http://www.w3.org/2000/svg">
<path d="M21.9776 4.85681C16.4516 4.8114 11.1293 6.54209 7.18052 9.6685C3.23174 12.7949 0.979556 17.0612 0.918945 21.5299C0.940238 25.0613 2.34508 28.4965 4.9317 31.342C7.51832 34.1874 11.1536 36.2967 15.3154 37.3669C16.3684 37.5217 16.7513 37.0109 16.7513 36.5619C16.7513 36.113 16.7513 35.1222 16.7513 33.7289C10.8931 34.7352 9.64874 31.4996 9.64874 31.4996C9.25876 30.4839 8.42969 29.6157 7.31313 29.0536C5.39871 28.0319 7.46629 28.0474 7.46629 28.0474C8.12801 28.1189 8.76112 28.3107 9.31813 28.6083C9.87514 28.9059 10.3416 29.3016 10.6825 29.7658C11.2766 30.5988 12.2515 31.21 13.3972 31.4676C14.5429 31.7253 15.768 31.609 16.8087 31.1436C16.9157 30.2958 17.3905 29.5061 18.1488 28.9143C13.4776 28.4963 8.57666 27.0721 8.57666 20.6784C8.53488 19.0106 9.29694 17.3951 10.7017 16.1734C10.0619 14.7415 10.1375 13.1644 10.9123 11.7768C10.9123 11.7768 12.6927 11.3279 16.6555 13.4797C20.1051 12.7364 23.7353 12.7364 27.1849 13.4797C31.2052 11.3279 32.9282 11.7768 32.9282 11.7768C33.703 13.1644 33.7785 14.7415 33.1388 16.1734C34.5761 17.3727 35.3795 18.9774 35.3786 20.6474C35.3786 27.0566 30.4394 28.4654 25.8065 28.8833C26.3138 29.2816 26.7057 29.7658 26.9539 30.3012C27.2022 30.8365 27.3007 31.4097 27.2423 31.9795V36.5464C27.2423 36.5464 27.6252 37.5217 28.6781 37.3515C32.8282 36.2746 36.4512 34.1648 39.0298 31.3234C41.6084 28.4819 43.0107 25.0542 43.0364 21.5299C42.9757 17.0612 40.7236 12.7949 36.7748 9.6685C32.826 6.54209 27.5037 4.8114 21.9776 4.85681Z" fill="#097179"/>
</svg>
