<svg width="47" height="38" viewBox="0 0 47 38" fill="none" xmlns="http://www.w3.org/2000/svg">
<path d="M29.7656 17.9783C28.2983 17.9742 26.8444 18.2041 25.4871 18.6549C24.1297 19.1057 22.8957 19.7685 21.8555 20.6053C20.8153 21.4422 19.9893 22.4367 19.4249 23.5319C18.8605 24.6272 18.5687 25.8017 18.5662 26.9882V36.0911C18.5662 36.4606 18.7477 36.815 19.0708 37.0763C19.3939 37.3376 19.8322 37.4844 20.2891 37.4844H24.3094C24.7664 37.4844 25.2047 37.3376 25.5278 37.0763C25.8509 36.815 26.0324 36.4606 26.0324 36.0911V26.9882C26.0321 26.5662 26.1417 26.1489 26.3541 25.7634C26.5666 25.378 26.8771 25.033 27.2654 24.7511C27.6538 24.4692 28.1113 24.2567 28.608 24.1273C29.1048 23.998 29.6296 23.9547 30.1484 24.0004C31.0789 24.0952 31.9339 24.4628 32.5515 25.0335C33.169 25.6042 33.506 26.3383 33.4987 27.0966V36.0911C33.4987 36.4606 33.6802 36.815 34.0033 37.0763C34.3265 37.3376 34.7647 37.4844 35.2217 37.4844H39.242C39.6989 37.4844 40.1372 37.3376 40.4603 37.0763C40.7834 36.815 40.965 36.4606 40.965 36.0911V26.9882C40.9625 25.8017 40.6706 24.6272 40.1062 23.5319C39.5418 22.4367 38.7159 21.4422 37.6756 20.6053C36.6354 19.7685 35.4014 19.1057 34.0441 18.6549C32.6868 18.2041 31.2329 17.9742 29.7656 17.9783Z" fill="#097179"/>
<path d="M13.3969 19.3716H8.22799C7.27641 19.3716 6.505 19.9953 6.505 20.7648V36.091C6.505 36.8605 7.27641 37.4843 8.22799 37.4843H13.3969C14.3485 37.4843 15.1199 36.8605 15.1199 36.091V20.7648C15.1199 19.9953 14.3485 19.3716 13.3969 19.3716Z" fill="#097179"/>
<path d="M10.8125 16.585C13.1914 16.585 15.1199 15.0255 15.1199 13.1018C15.1199 11.178 13.1914 9.61854 10.8125 9.61854C8.43352 9.61854 6.505 11.178 6.505 13.1018C6.505 15.0255 8.43352 16.585 10.8125 16.585Z" fill="#097179"/>
</svg>
