<svg width="49" height="49" viewBox="0 0 49 49" fill="none" xmlns="http://www.w3.org/2000/svg">
<g clip-path="url(#clip0_319_2)">
<path d="M20.0963 37.168C13.2596 39.2482 24.2547 43.5458 32.9589 39.4835C31.5333 38.8798 30.5124 38.1828 30.5124 38.1828C26.6297 38.983 24.8289 39.0458 21.3055 38.6081C18.3972 38.244 20.0963 37.168 20.0963 37.168ZM18.6168 33.168C10.2521 35.9449 23.2707 39.094 34.9589 35.6753C33.7165 35.2372 32.9265 34.436 32.9265 34.436C27.2141 35.5362 23.9129 35.5009 19.7327 35.0695C16.5002 34.7351 18.6168 33.168 18.6168 33.168ZM42.0135 41.4861C42.0135 41.4861 43.4 42.3625 40.4865 43.0405C34.9464 44.328 17.4279 44.7168 12.5613 43.0918C10.8119 42.508 14.0925 41.6978 15.1245 41.5278C16.2007 41.3487 16.8157 41.3821 16.8157 41.3821C14.8702 40.3307 4.24073 43.4465 11.4165 44.3389C30.9858 46.7734 47.0895 43.2426 42.0135 41.4861ZM21.3476 27.1754C21.3476 27.1754 12.665 29.1374 18.2729 29.8498C20.6407 30.1514 25.3609 30.0832 29.7576 29.7327C33.3509 29.4444 36.9589 28.8312 36.9589 28.8312C36.9589 28.8312 35.6919 29.3475 34.7752 29.9429C25.9582 32.1491 8.92532 31.1228 13.8289 28.8661C17.9758 26.959 21.3476 27.1754 21.3476 27.1754ZM37.125 34.9183C37.0868 35.0362 36.9589 35.168 36.9589 35.168C47.9955 31.8211 43.938 23.3709 38.662 25.5105C38.1986 25.7003 37.9559 26.1388 37.9559 26.1388C37.9559 26.1388 38.2474 26.0028 38.901 25.8459C41.5679 25.2046 45.3887 29.9648 37.125 34.9183ZM20.9745 48.0353C29.911 48.5219 43.6339 47.7653 43.9589 44.168C43.9589 44.168 43.3342 45.5317 36.5734 46.6147C28.9459 47.8358 19.5385 47.6932 13.9589 46.9106C13.9589 46.9106 15.1011 47.7148 20.9745 48.0353Z" fill="#5382A1"/>
<path d="M29.9422 23.8844C22.6124 14.4496 37.9589 10.168 37.9589 10.168C28.182 16.5022 29.988 18.3393 32.343 22.0368C34.8646 26.0017 29.3741 29.168 29.3741 29.168C29.3741 29.168 32.1045 26.6654 29.9422 23.8844ZM31.6147 0.167969C31.6147 0.167969 36.8539 5.28343 26.6456 13.1496C18.4595 19.4596 24.7789 23.0573 26.6422 27.168C21.8638 22.96 18.3572 19.2557 20.7097 15.808C24.1627 10.7472 33.7286 8.29357 31.6147 0.167969Z" fill="#E76F00"/>
</g>
<defs>
<clipPath id="clip0_319_2">
<rect width="48" height="48" fill="white" transform="translate(0.958923 0.167969)"/>
</clipPath>
</defs>
</svg>
