<svg width="48" height="48" viewBox="0 0 48 48" fill="none" xmlns="http://www.w3.org/2000/svg">
<path fill-rule="evenodd" clip-rule="evenodd" d="M32.7221 37.5521C32.7855 37.4302 32.8462 37.3226 32.898 37.2112C32.9306 37.14 32.9809 37.1257 33.0517 37.1276C33.4766 37.1396 33.9015 37.1527 34.3267 37.1568C34.6879 37.1606 35.0497 37.1538 35.4112 37.1497C35.8185 37.1448 36.2257 37.1235 36.6326 37.1351C37.1745 37.1508 37.7025 37.257 38.1926 37.4981C38.778 37.7865 39.2209 38.2256 39.5227 38.8042C39.7125 39.1711 39.831 39.5707 39.8719 39.9817C39.9364 40.5847 39.894 41.1738 39.7027 41.7506C39.4657 42.4653 39.0157 43.0125 38.3906 43.4223C37.9095 43.7377 37.3819 43.9241 36.8164 44.0306C36.2179 44.1435 35.6175 44.1071 35.0171 44.109C34.3586 44.1116 33.7005 44.0973 33.042 44.0898C32.9269 44.0887 32.9104 44.067 32.9407 43.9571L32.9689 43.8558C33.033 43.6541 33.0675 43.6451 33.2722 43.6113C33.4174 43.5885 33.5562 43.5358 33.6799 43.4565C33.7489 43.4107 33.7774 43.2915 33.8044 43.1996C33.8276 43.1193 33.8287 43.0312 33.8295 42.9465C33.8389 41.6621 33.8486 40.3781 33.8539 39.0945C33.8553 38.7698 33.8472 38.4452 33.8295 38.121C33.8167 37.8941 33.6956 37.7388 33.4256 37.6852C33.2156 37.6436 33.0041 37.6113 32.793 37.5742L32.7221 37.5521ZM38.7506 40.662C38.7221 40.4062 38.7082 40.1482 38.6625 39.8962C38.553 39.2913 38.2882 38.7645 37.8232 38.3516C37.0714 37.6845 36.1661 37.5817 35.2174 37.6612C35.0014 37.6792 34.9549 37.7531 34.9515 37.9751C34.9462 38.2901 34.941 38.6051 34.9406 38.9201C34.9391 39.9191 34.9391 40.9181 34.9406 41.9171C34.941 42.2013 34.944 42.4856 34.9522 42.7691C34.9612 43.0593 35.0666 43.305 35.3509 43.4175C35.799 43.5948 36.2704 43.6158 36.7406 43.5435C37.4917 43.4283 38.0171 42.9907 38.3696 42.3348C38.6486 41.8143 38.7274 41.2462 38.7506 40.662ZM40.5765 44.0636C40.5675 43.908 40.6312 43.7793 40.71 43.6612C40.7314 43.6293 40.8049 43.6308 40.8555 43.6207L41.2852 43.5356C41.4371 43.5033 41.517 43.4013 41.5384 43.2525C41.5526 43.1542 41.5661 43.0548 41.5672 42.9555C41.5774 42.1691 41.5848 41.3827 41.5894 40.5963C41.5931 39.8088 41.5901 39.0213 41.5901 38.2338L41.5867 38.0835C41.5714 37.8303 41.4491 37.6991 41.1979 37.662L40.653 37.5791C40.5859 37.5701 40.5615 37.5378 40.5859 37.4782C40.6279 37.3766 40.668 37.2712 40.7272 37.1797C40.7494 37.146 40.824 37.1328 40.8742 37.134C41.1345 37.1377 41.3947 37.1572 41.655 37.1568L43.9204 37.1433C44.3569 37.143 44.7784 37.2191 45.1699 37.428C45.6007 37.6575 45.8419 38.0126 45.9109 38.4963C45.9829 39.0045 45.8287 39.4327 45.4575 39.7728C45.3049 39.9131 45.1072 40.0046 44.9302 40.1186L44.8725 40.1546C45.0367 40.215 45.1931 40.2671 45.3454 40.3293C45.7909 40.512 46.1452 40.7973 46.3327 41.253C46.4809 41.6126 46.4809 41.9876 46.3931 42.3603C46.2566 42.9438 45.8722 43.332 45.3724 43.6256C44.9032 43.9012 44.3955 44.0617 43.8547 44.0887C43.356 44.1138 42.855 44.1045 42.3551 44.1101L42.0656 44.1116C41.5838 44.1005 41.1021 44.0885 40.6204 44.0756L40.5765 44.0636ZM42.6529 41.7802H42.6577C42.6577 42.027 42.6544 42.2737 42.6589 42.5205C42.6619 42.6802 42.6562 42.8445 42.6907 42.9982C42.7425 43.2281 42.8475 43.4355 43.1055 43.5015C43.4504 43.5921 43.8107 43.608 44.1622 43.548C44.6036 43.4711 44.9557 43.2498 45.1489 42.8295C45.2921 42.5171 45.3135 42.186 45.2644 41.8477C45.1991 41.4022 44.9625 41.079 44.5691 40.8671C44.3111 40.728 44.0359 40.6428 43.7426 40.6316C43.4141 40.6192 43.0852 40.6185 42.7567 40.6083C42.6645 40.6057 42.6517 40.6526 42.6521 40.7283C42.654 41.0786 42.6529 41.4292 42.6529 41.7802ZM43.3522 40.1021C43.5319 40.0931 43.7351 40.0905 43.9372 40.0702C44.3242 40.0316 44.5969 39.837 44.739 39.4668C44.8114 39.279 44.8084 39.0855 44.8102 38.8901C44.8159 38.3812 44.5189 37.9642 44.0355 37.7917C43.6624 37.6586 43.2776 37.6563 42.8906 37.6668C42.7339 37.671 42.6637 37.7396 42.6615 37.8975L42.6382 39.9558C42.6371 40.0376 42.6724 40.0728 42.7519 40.0755L43.3522 40.1021Z" fill="#94795D"/>
<path fill-rule="evenodd" clip-rule="evenodd" d="M3.95362 43.668L3.92624 44.022C3.67124 44.022 3.43612 44.0202 3.20099 44.0228C2.75812 44.0273 2.31524 44.0344 1.87199 44.0408L1.82924 44.0434C1.76587 44.0359 1.65074 44.0359 1.64774 44.0172C1.62899 43.9118 1.63499 43.8012 1.63987 43.692C1.64024 43.6797 1.68337 43.6639 1.70849 43.6579L2.05312 43.581C2.26799 43.5252 2.34374 43.4325 2.35387 43.2105C2.36549 42.9604 2.37712 42.7099 2.37824 42.4598C2.38162 41.844 2.37787 41.229 2.38049 40.6133C2.38087 40.4693 2.33099 40.362 2.19674 40.3035C2.03722 40.2327 1.87657 40.1645 1.71487 40.0988C1.63837 40.068 1.53899 40.0512 1.54799 39.9484C1.55699 39.8438 1.65337 39.8164 1.74412 39.7958C2.11987 39.7099 2.49599 39.6263 2.87062 39.5348C2.99137 39.5052 3.10687 39.4553 3.25124 39.405C3.25874 39.483 3.27262 39.5573 3.27112 39.6315L3.24899 39.9844C3.24862 40.0242 3.26924 40.0774 3.29887 40.0995C3.31687 40.1134 3.37724 40.0883 3.40724 40.065C3.72749 39.8213 4.06649 39.6109 4.45312 39.4883C5.05199 39.2982 5.56612 39.4744 5.92612 39.9908C6.05287 40.1727 6.05324 40.1727 6.22912 40.0455C6.53099 39.8262 6.84674 39.6327 7.19999 39.5052C7.97549 39.225 8.72062 39.5805 8.99024 40.3617C9.08849 40.6452 9.12599 40.938 9.12524 41.2373L9.11812 43.224C9.11774 43.3879 9.17212 43.4813 9.32812 43.5323C9.50324 43.5897 9.68474 43.629 9.88199 43.6808L9.83624 44.0224C9.61199 44.0224 9.40574 44.0209 9.19949 44.0228C8.69549 44.0273 8.19149 44.0299 7.68787 44.0415C7.60012 44.0438 7.57724 44.022 7.57274 43.9399C7.55812 43.677 7.55587 43.6774 7.80337 43.6182L7.88662 43.5968C8.12849 43.5308 8.20912 43.4565 8.21099 43.2113C8.21662 42.507 8.23124 41.8009 8.19562 41.0982C8.15849 40.3692 7.57987 39.981 6.87337 40.1678C6.64534 40.2302 6.43059 40.3337 6.23962 40.473C6.17399 40.5199 6.16162 40.5739 6.16687 40.656C6.18674 40.9665 6.19912 41.2774 6.20174 41.5883C6.20624 42.1324 6.19949 42.6765 6.20174 43.221C6.20249 43.4415 6.27787 43.5259 6.49574 43.5769L6.81937 43.6515L6.87937 43.665C6.88387 43.7685 6.88799 43.872 6.88312 43.9755C6.88012 44.0404 6.82987 44.046 6.77362 44.0449C6.45899 44.037 6.14399 44.0265 5.82937 44.0273C5.44649 44.028 5.06399 44.0389 4.68149 44.0457H4.59149C4.59149 43.9358 4.58624 43.8308 4.59524 43.7262C4.59712 43.701 4.64137 43.6658 4.67174 43.6579L5.04899 43.578C5.20912 43.5387 5.28562 43.4565 5.29462 43.2938C5.33737 42.54 5.36812 41.7859 5.29724 41.0325C5.27997 40.8837 5.23869 40.7387 5.17499 40.6032C4.98187 40.1764 4.54724 39.9983 4.04587 40.1265C3.80774 40.1873 3.59287 40.2964 3.38962 40.434C3.3453 40.4613 3.30889 40.4997 3.28402 40.5455C3.25915 40.5912 3.24669 40.6426 3.24787 40.6947C3.24787 41.4465 3.25049 42.1984 3.25274 42.9499L3.25687 43.2398C3.26137 43.4419 3.34724 43.5484 3.54787 43.5919C3.67687 43.6212 3.80737 43.641 3.95362 43.668Z" fill="#50382B"/>
<path fill-rule="evenodd" clip-rule="evenodd" d="M26.6254 39.4819C26.6835 39.7646 26.6824 40.0189 26.4746 40.2116C26.2684 40.4032 26.0074 40.3387 25.7528 40.296C25.7764 40.4302 25.8026 40.5442 25.8154 40.6597C25.908 41.5181 25.5386 42.1552 24.7425 42.5194C24.4418 42.6566 24.1226 42.7076 23.7968 42.7339C23.6348 42.7466 23.493 42.8704 23.4776 43.0035C23.4619 43.1385 23.5466 43.2772 23.7161 43.3177C23.916 43.3654 24.1245 43.3789 24.3296 43.4025C24.7699 43.4527 25.215 43.4756 25.65 43.5544C26.3078 43.6729 26.6749 44.247 26.559 44.9077C26.4559 45.4957 26.1154 45.9236 25.6406 46.2517C24.8408 46.806 23.9633 46.968 23.0288 46.6852C22.4944 46.5232 22.1175 46.1719 21.9874 45.6034C21.9221 45.3187 21.9915 45.0611 22.2056 44.868C22.4603 44.6392 22.7374 44.4352 23.004 44.2192L23.0903 44.1326L22.9913 44.0632C22.7194 43.9342 22.5019 43.7576 22.4175 43.4509C22.3886 43.347 22.4186 43.2787 22.5068 43.2255C22.6568 43.1351 22.806 43.0432 22.9541 42.9499C23.0239 42.9064 23.0929 42.8614 23.1578 42.8111C23.2463 42.7436 23.2384 42.6934 23.1326 42.6544C22.8866 42.5636 22.668 42.432 22.4985 42.2295C22.2154 41.8916 22.1351 41.4892 22.1584 41.0644C22.1948 40.4006 22.5551 39.9634 23.1409 39.6821C23.8373 39.348 24.5359 39.327 25.2458 39.6315C25.5083 39.744 25.785 39.768 26.0666 39.7485C26.277 39.7335 26.4608 39.654 26.6254 39.4819ZM24.0593 44.2372C23.5365 44.2327 23.3726 44.2972 23.0659 44.6096C22.7224 44.9599 22.7243 45.4455 23.067 45.7972C23.3273 46.0639 23.652 46.1887 24.0131 46.2262C24.435 46.2697 24.8505 46.2521 25.2338 46.041C25.6425 45.8149 25.8458 45.3949 25.7539 44.9719C25.6778 44.6227 25.4205 44.463 25.1074 44.3711C24.7511 44.2669 24.3829 44.247 24.0593 44.2372ZM23.0325 40.8967C23.0516 41.0419 23.0595 41.1889 23.0918 41.331C23.1754 41.6992 23.3355 42.0229 23.7019 42.1867C24.132 42.3799 24.6814 42.297 24.8696 41.6932C24.9982 41.2914 24.9833 40.8575 24.8273 40.4655C24.7611 40.2863 24.6421 40.1315 24.486 40.0215C24.1125 39.7609 23.4386 39.7264 23.1641 40.3024C23.0749 40.4895 23.04 40.6886 23.0325 40.8967Z" fill="#4F382B"/>
<path fill-rule="evenodd" clip-rule="evenodd" d="M17.7562 39.3893C17.7701 39.4534 17.7979 39.5261 17.7986 39.5993C17.7997 39.7384 17.7847 39.8775 17.7769 40.0166V40.1374L17.8946 40.0474C18.2171 39.7819 18.5636 39.5558 18.9671 39.4339C19.6954 39.2145 20.4229 39.6131 20.6602 40.3549C20.7502 40.6369 20.7859 40.9268 20.7892 41.2215C20.7967 41.8763 20.8012 42.531 20.808 43.1858C20.8102 43.4209 20.8372 43.4629 21.0596 43.5308C21.1862 43.5685 21.3152 43.5972 21.4459 43.6166C21.5175 43.6279 21.5482 43.656 21.5445 43.7261L21.5452 43.7906C21.5426 44.0618 21.5239 44.0741 21.261 44.0734C20.6317 44.0723 20.0029 44.076 19.3736 44.0813C19.1861 44.0828 19.1857 44.0884 19.167 43.9031L19.1632 43.7966C19.1749 43.6369 19.1786 43.6384 19.3357 43.6151C19.4415 43.5994 19.5465 43.575 19.6496 43.548C19.7557 43.5206 19.8067 43.4423 19.821 43.3373C19.8281 43.284 19.8375 43.2308 19.8371 43.1775C19.8281 42.462 19.8397 41.7458 19.8007 41.0314C19.7692 40.4535 19.3282 40.1093 18.7481 40.1486C18.4685 40.168 18.1997 40.2644 17.9715 40.4273C17.8166 40.5356 17.7855 40.692 17.7862 40.8604C17.7892 41.5294 17.7956 42.1984 17.8027 42.8678C17.8042 43.0144 17.8084 43.161 17.8222 43.3065C17.8369 43.4655 17.8927 43.5296 18.0487 43.5641C18.198 43.5971 18.3502 43.6163 18.5096 43.6429L18.5231 43.7659C18.5284 44.0528 18.4984 44.0741 18.2197 44.073C17.5691 44.0704 16.9185 44.0745 16.2682 44.0816C16.1659 44.0831 16.1224 44.0509 16.125 43.9511L16.1235 43.9084C16.1066 43.65 16.1141 43.6403 16.3586 43.5983L16.4741 43.575C16.7389 43.5154 16.8067 43.4449 16.8105 43.176C16.8229 42.3244 16.8274 41.4731 16.836 40.6215C16.8371 40.4993 16.791 40.4044 16.677 40.3538C16.517 40.2837 16.3561 40.2157 16.1944 40.1498C16.1051 40.113 16.0031 40.0898 15.9997 39.9664C15.9975 39.8794 16.0905 39.8025 16.2176 39.7766C16.473 39.7249 16.7306 39.6818 16.983 39.6184C17.2342 39.5558 17.481 39.4718 17.7562 39.3893Z" fill="#4F372B"/>
<path fill-rule="evenodd" clip-rule="evenodd" d="M31.8244 41.6138C31.8124 42.4091 31.6058 43.0523 31.0433 43.5349C30.3308 44.1473 29.2193 44.3554 28.3106 43.8975C27.9229 43.7021 27.6379 43.4025 27.4523 43.0136C27.1676 42.4155 27.0964 41.7866 27.2449 41.1424C27.3919 40.5053 27.7778 40.0436 28.3553 39.7448C28.9493 39.4376 29.5748 39.3176 30.2344 39.4789C31.0688 39.6825 31.6684 40.3628 31.7876 41.229C31.809 41.3809 31.8173 41.5346 31.8244 41.6138ZM30.858 42.0446L30.8258 42.0409C30.8258 41.9659 30.8299 41.8909 30.825 41.8159C30.7976 41.3486 30.6926 40.9035 30.4219 40.5124C30.165 40.1419 29.8151 39.9233 29.3599 39.8914C28.8503 39.8554 28.422 40.1404 28.2716 40.6609C28.0459 41.4424 28.1224 42.204 28.5191 42.9199C28.692 43.2319 28.9481 43.4621 29.2913 43.5833C29.9636 43.8199 30.5599 43.5135 30.735 42.825C30.7995 42.5708 30.8183 42.3049 30.858 42.0446Z" fill="#4F382B"/>
<path fill-rule="evenodd" clip-rule="evenodd" d="M15.3071 41.6753C15.2932 42.246 15.1586 42.7736 14.8061 43.2323C14.4285 43.7235 13.9095 43.986 13.3192 44.0966C12.6214 44.2271 11.9659 44.1086 11.4052 43.6403C11.139 43.4175 10.9571 43.1321 10.8371 42.8074C10.6402 42.2749 10.5911 41.7293 10.7122 41.1731C10.8416 40.578 11.1776 40.1231 11.6985 39.8179C12.3007 39.4658 12.9506 39.3086 13.6447 39.4669C14.5372 39.6709 15.0525 40.2525 15.243 41.133C15.2812 41.3108 15.2865 41.4945 15.3071 41.6753ZM14.3299 42.0518L14.304 42.048V41.9408C14.2894 41.4173 14.187 40.9185 13.8746 40.4835C13.6432 40.1606 13.3335 39.9581 12.9364 39.9015C12.2891 39.8093 11.8661 40.1933 11.7259 40.7149C11.5429 41.3963 11.6002 42.0694 11.8834 42.7155C12.06 43.1183 12.339 43.4321 12.7676 43.5844C13.4359 43.8218 14.0411 43.5075 14.2102 42.8216C14.2725 42.5708 14.2912 42.309 14.3299 42.0518Z" fill="#4F372B"/>
<path fill-rule="evenodd" clip-rule="evenodd" d="M30.8858 12.579C31.3459 13.9091 31.6766 15.267 31.7858 16.674C31.9208 18.42 31.8593 20.154 31.491 21.8711L31.4438 22.0084C31.3283 22.0087 31.2105 21.9941 31.0976 22.0117C30.144 22.1617 29.1915 22.317 28.2386 22.4715C27.2535 22.6312 26.2676 22.7846 25.2844 22.9549C24.936 23.0149 24.5048 22.9432 24.3641 23.4247L24.2966 23.4476L24.3443 20.5684L24.2959 13.6211L24.7549 13.5424C25.5053 13.4197 26.2556 13.2949 27.0071 13.1752C27.9034 13.0331 28.8004 12.8944 29.6974 12.7556C30.0934 12.6949 30.4898 12.6382 30.8858 12.579Z" fill="#439934"/>
<path fill-rule="evenodd" clip-rule="evenodd" d="M23.3494 31.8417C22.8653 31.4254 22.3643 31.0275 21.9004 30.5895C19.4036 28.2345 17.577 25.4622 16.6774 22.1198C16.4295 21.2003 16.2645 20.2654 16.2113 19.3152C16.1738 18.6499 16.1201 17.979 16.1674 17.3172C16.2923 15.5573 16.5469 13.8143 17.0629 12.1189L17.0914 12.0795C17.1416 12.1463 17.2136 12.2055 17.2391 12.2809C17.7431 13.7644 18.243 15.2494 18.7406 16.7355C20.304 21.4047 21.8655 26.0749 23.4315 30.7433C23.4623 30.8344 23.5414 30.909 23.5984 30.9912L23.3494 31.8417Z" fill="#45A538"/>
<path fill-rule="evenodd" clip-rule="evenodd" d="M30.8858 12.579C30.4894 12.6379 30.093 12.6949 29.6974 12.7556C28.8004 12.8944 27.9034 13.0331 27.0071 13.1752C26.256 13.2945 25.5056 13.4194 24.7549 13.5424L24.2959 13.6211L24.2921 13.3219C24.2768 13.0759 24.2513 12.8299 24.2479 12.5839L24.1965 7.87612C24.1845 6.89399 24.1665 5.91187 24.1466 4.93012C24.1365 4.31992 24.1189 3.70988 24.0938 3.10012C24.0788 2.77274 24.0259 2.44687 24.0049 2.11949C23.9925 1.93124 24.009 1.74149 24.0131 1.55249C24.2471 2.00587 24.4763 2.46262 24.7166 2.91262C25.0965 3.62399 25.7021 4.14824 26.2478 4.72012C28.4025 6.98174 29.9321 9.60974 30.8858 12.579Z" fill="#46A037"/>
<path fill-rule="evenodd" clip-rule="evenodd" d="M24.297 23.4476L24.3645 23.4248C24.5051 22.9433 24.9364 23.0149 25.2848 22.9549C26.268 22.7846 27.2539 22.6313 28.239 22.4715C29.1919 22.3174 30.1444 22.1621 31.098 22.0118C31.2109 21.9941 31.3286 22.0088 31.4441 22.0084C31.266 22.6444 31.1258 23.2943 30.8996 23.9126C30.6428 24.6139 30.3323 25.2986 30.0026 25.9699C29.5089 26.9709 28.898 27.9097 28.1828 28.7666C27.633 29.4274 27.0203 30.039 26.4064 30.6424C26.0666 30.9758 25.6669 31.2476 25.2941 31.5476L25.1974 31.4816L24.8498 31.1846L24.4901 30.3956C24.2444 29.4756 24.1103 28.5293 24.0908 27.5771L24.0975 27.4166L24.1466 26.7214C24.1628 26.484 24.1845 26.247 24.1946 26.0096C24.2306 25.1561 24.2629 24.3019 24.297 23.4476Z" fill="#409433"/>
<path fill-rule="evenodd" clip-rule="evenodd" d="M24.297 23.4476C24.2632 24.3019 24.231 25.1565 24.1946 26.0108C24.1845 26.2485 24.1631 26.4855 24.1466 26.7225L23.9276 26.8054C23.4409 25.3725 22.9537 23.9546 22.4775 22.5334C21.6896 20.1818 20.9115 17.8268 20.1247 15.4744C19.4894 13.5759 18.8497 11.6789 18.2055 9.7834C18.1751 9.6949 18.0889 9.62515 18.0289 9.54677L19.4314 6.9679C19.4797 7.05152 19.5431 7.1299 19.5735 7.2199C20.2222 9.1399 20.8699 11.0603 21.5119 12.9825C22.3474 15.4838 23.1772 17.9861 24.012 20.4878C24.0454 20.5875 24.1001 20.6798 24.1526 20.7919L24.3446 20.5684L24.297 23.4476Z" fill="#4FAA41"/>
<path fill-rule="evenodd" clip-rule="evenodd" d="M18.0285 9.54675C18.0889 9.62513 18.1751 9.69488 18.2051 9.78338C18.8494 11.6789 19.4891 13.5759 20.1244 15.4744C20.9111 17.8268 21.6893 20.1818 22.4771 22.5334C22.9534 23.9546 23.4405 25.3721 23.9273 26.8054L24.1463 26.7225L24.0971 27.4178L24.0525 27.5779C23.9764 28.3388 23.9123 29.1011 23.8193 29.8605C23.7728 30.2411 23.6734 30.6146 23.598 30.9911C23.5414 30.909 23.4619 30.8344 23.4311 30.7433C21.8648 26.0749 20.3036 21.4046 18.7403 16.7355C18.2428 15.2496 17.7423 13.7647 17.2388 12.2809C17.2133 12.2055 17.1413 12.1463 17.091 12.0795L18.0285 9.54675Z" fill="#4AA73C"/>
<path fill-rule="evenodd" clip-rule="evenodd" d="M24.3443 20.5684L24.1523 20.7919C24.0998 20.6798 24.045 20.5875 24.0117 20.4878C23.1769 17.9862 22.347 15.4838 21.5115 12.9825C20.8688 11.0605 20.2227 9.13964 19.5732 7.2199C19.5428 7.1299 19.4794 7.05153 19.431 6.9679L21.1654 4.6864C21.2202 4.75915 21.2982 4.82403 21.3263 4.90615C21.8078 6.31615 22.2848 7.72728 22.7595 9.13953C23.2028 10.4588 23.6393 11.7795 24.0878 13.0965C24.1178 13.1847 24.2224 13.2469 24.2922 13.3219L24.2959 13.6212L24.3443 20.5684Z" fill="#57AE47"/>
<path fill-rule="evenodd" clip-rule="evenodd" d="M24.2922 13.3219C24.222 13.2472 24.1178 13.185 24.0878 13.0965C23.6397 11.7795 23.2028 10.4587 22.7595 9.13948C22.2852 7.72722 21.8074 6.31609 21.3263 4.90611C21.2982 4.82398 21.2202 4.75911 21.1654 4.68636C21.7294 4.13398 22.2758 3.56173 22.8627 3.03486C23.3843 2.56686 23.8035 2.06511 23.823 1.32523L23.8643 1.17786L24.0128 1.55211C24.009 1.74111 23.9922 1.93086 24.0045 2.11911C24.0259 2.44648 24.0788 2.77236 24.0934 3.09973C24.1208 3.70911 24.1339 4.31961 24.1463 4.92973C24.1662 5.91148 24.1842 6.89361 24.1962 7.87573L24.2475 12.5835C24.2513 12.8299 24.2772 13.0759 24.2922 13.3219Z" fill="#60B24F"/>
<path fill-rule="evenodd" clip-rule="evenodd" d="M23.5984 30.9908C23.6737 30.6143 23.7731 30.2408 23.8196 29.8601C23.9126 29.1011 23.9767 28.3384 24.0529 27.5775L24.072 27.5745L24.0907 27.5779C24.1103 28.53 24.2444 29.4763 24.4901 30.3964C24.4395 30.4631 24.3686 30.522 24.3416 30.597C24.1335 31.1843 23.937 31.7764 23.7277 32.3633C23.6992 32.4435 23.619 32.5062 23.5631 32.5763L23.349 31.8413L23.5984 30.9908Z" fill="#A9AA88"/>
<path fill-rule="evenodd" clip-rule="evenodd" d="M23.5631 32.5766C23.619 32.5061 23.6992 32.4439 23.7277 32.3636C23.937 31.7767 24.1335 31.1846 24.3416 30.5974C24.3682 30.5224 24.4395 30.4635 24.4901 30.3967L24.8497 31.1857C24.7789 31.2862 24.6806 31.3774 24.6412 31.4895L23.9527 33.5115C23.9242 33.5929 23.8279 33.6499 23.7626 33.7185L23.5631 32.5766Z" fill="#B6B598"/>
<path fill-rule="evenodd" clip-rule="evenodd" d="M23.7626 33.7181C23.8275 33.6495 23.9243 33.5925 23.9528 33.5111L24.6413 31.4891C24.6803 31.377 24.7789 31.2859 24.8498 31.1854L25.1978 31.482C25.0298 31.6481 24.9364 31.8401 24.9926 32.0827L24.8869 32.4289C24.8389 32.4881 24.7691 32.5399 24.7455 32.6077C24.5051 33.2962 24.276 33.9885 24.0338 34.6766C24.003 34.7636 23.9179 34.8322 23.8583 34.9095L23.7626 33.7181Z" fill="#C2C1A7"/>
<path fill-rule="evenodd" clip-rule="evenodd" d="M23.8579 34.9091C23.9179 34.8318 24.003 34.7632 24.0334 34.6762C24.2756 33.9881 24.5051 33.2958 24.7451 32.6073C24.7687 32.5395 24.8385 32.4881 24.8865 32.4285L24.7406 34.017C24.7016 34.062 24.6454 34.1013 24.6266 34.1535L24.1414 35.544C24.1072 35.6388 24.042 35.7236 23.991 35.8125C23.9456 35.7532 23.8646 35.6958 23.8609 35.6343C23.8466 35.3936 23.8567 35.151 23.8579 34.9091Z" fill="#CECDB7"/>
<path fill-rule="evenodd" clip-rule="evenodd" d="M23.9914 35.8129C24.0424 35.724 24.1076 35.6393 24.1418 35.5444L24.627 34.1539C24.6458 34.1014 24.7024 34.0624 24.741 34.0174L24.7448 35.0599L24.3956 35.955L23.9914 35.8129Z" fill="#DBDAC7"/>
<path fill-rule="evenodd" clip-rule="evenodd" d="M24.3956 35.955L24.7448 35.0599L24.8168 36.1189L24.3956 35.955Z" fill="#EBE9DC"/>
<path fill-rule="evenodd" clip-rule="evenodd" d="M24.9923 32.0827C24.9364 31.8405 25.0294 31.6485 25.1974 31.482L25.2941 31.548L24.9923 32.0827Z" fill="#CECDB7"/>
<path fill-rule="evenodd" clip-rule="evenodd" d="M24.0907 27.5782L24.072 27.5748L24.0529 27.5779L24.0975 27.4177L24.0907 27.5782Z" fill="#4FAA41"/>
</svg>
