<svg width="48" height="48" viewBox="0 0 48 48" fill="none" xmlns="http://www.w3.org/2000/svg">
<g clip-path="url(#clip0_319_32)">
<path d="M12.0372 43.067H10.2558C10.1932 38.6361 10.0195 34.4696 9.73566 30.5667H9.71997L7.00769 43.067H5.65135L2.9555 30.5667H2.93962C2.73958 34.3149 2.61374 38.4814 2.56126 43.067H0.937012C1.04197 37.4902 1.30465 32.2625 1.72505 27.3826H3.93299L6.50305 38.907H6.51882L9.10465 27.3826H11.2173C11.6799 33.0978 11.9531 38.3271 12.037 43.067" fill="#00758F"/>
<path d="M19.7646 31.4952C19.0391 37.2954 18.0823 41.5105 16.8946 44.1399C15.9692 46.166 14.9554 47.1791 13.8515 47.1791C13.5572 47.1791 13.1944 47.0485 12.7637 46.7889V45.3907C12.9741 45.4361 13.2209 45.4603 13.5048 45.4603C14.0198 45.4603 14.4349 45.2506 14.7506 44.8319C15.1288 44.3218 15.318 43.7485 15.318 43.1131C15.318 42.6791 15.1704 41.7886 14.8765 40.4415L12.9215 31.4952H14.6715L16.0747 38.1862C16.3899 39.7054 16.5214 40.7659 16.4688 41.3704C17.2362 38.3498 17.7724 35.0579 18.0774 31.4952H19.7645" fill="#00758F"/>
<path d="M27.568 38.7195C27.568 40.0496 27.2363 41.1416 26.5752 41.996C25.9136 42.8466 25.0247 43.2731 23.9116 43.2731C22.8705 43.2731 21.8616 42.7822 20.8842 41.8086L21.3414 40.4613C22.1825 41.0809 22.9436 41.3903 23.627 41.3903C24.268 41.3903 24.7697 41.18 25.1327 40.7647C25.4949 40.3463 25.7119 39.7629 25.7119 39.0228C25.7119 38.0915 25.2712 37.2955 24.4625 36.6277C23.716 36.024 22.224 34.7636 22.224 34.7636C21.4156 33.8946 21.0103 32.9622 21.0103 31.426C21.0103 30.1554 21.3126 29.1285 21.9162 28.3471C22.5213 27.5642 23.3019 27.1727 24.2578 27.1727C25.2459 27.1727 26.1444 27.5613 26.9536 28.3357L26.5425 29.6817C25.8501 29.2491 25.1673 29.032 24.4941 29.032C23.9479 29.032 23.527 29.2252 23.2335 29.614C22.9384 29.9994 22.7559 30.4955 22.7559 31.1C22.7559 32.0289 23.2063 32.8346 24.0377 33.5153C24.7936 34.1193 26.3222 35.4042 26.3222 35.4042C27.1536 36.2715 27.568 37.1963 27.568 38.7195Z" fill="#F29111"/>
<path fill-rule="evenodd" clip-rule="evenodd" d="M30.7526 39.9293C30.3215 38.907 30.1055 37.2663 30.1055 35.0041C30.1055 31.0547 30.9205 29.0787 32.5496 29.0787C33.4014 29.0787 34.0265 29.5513 34.4263 30.4956C34.8568 31.5184 35.0728 33.1448 35.0728 35.3755C35.0728 39.3565 34.2578 41.3478 32.6287 41.3478C31.7772 41.3478 31.1518 40.8757 30.7526 39.9295M37.091 43.4453L35.1346 42.0236C35.3088 41.8131 35.4742 41.586 35.624 41.3231C36.4546 39.8841 36.8703 37.7543 36.8703 34.9345C36.8703 29.7457 35.488 27.1498 32.7235 27.1498C31.3675 27.1498 30.3107 27.8078 29.554 29.1256C28.7231 30.5664 28.3082 32.6882 28.3082 35.492C28.3082 38.2489 28.6759 40.2714 29.4117 41.5562C30.0821 42.7175 31.096 43.2989 32.4534 43.2989C32.9598 43.2989 33.4244 43.207 33.8468 43.0233L36.3944 45.208L37.089 43.4451" fill="#F29111"/>
<path d="M43.4772 43.067H38.4162V27.3826H40.1192V41.1376H43.4772V43.0669" fill="#F29111"/>
<path d="M44.6916 43.0653H44.9738V41.4695H45.3431V41.1436H44.308V41.4695H44.6916V43.0653ZM46.8389 43.0653H47.1049V41.1436H46.7049L46.3793 42.4535L46.0248 41.1436H45.6393V43.0653H45.891V41.6028H45.9053L46.2765 43.0653H46.4683L46.8389 41.6028V43.0653Z" fill="#F29111"/>
<path fill-rule="evenodd" clip-rule="evenodd" d="M45.6149 22.1289C44.5856 22.091 43.7885 22.2424 43.12 22.6596C42.9271 22.7732 42.6188 22.7732 42.5924 23.1333C42.696 23.2847 42.7084 23.5308 42.799 23.7402C42.9529 24.1192 43.2224 24.63 43.4673 24.8961C43.7374 25.1994 44.0075 25.5015 44.2908 25.7668C44.7919 26.2235 45.358 26.4877 45.8459 26.9427C46.1298 27.2077 46.4117 27.5485 46.6955 27.8335C46.8365 27.985 46.9258 28.2318 47.1066 28.3256V28.2682C47.0159 28.0981 46.9906 27.8517 46.9011 27.6611C46.7727 27.4731 46.6439 27.3014 46.515 27.1128C46.1419 26.3738 45.6783 25.7301 45.178 25.1994C44.7661 24.7814 43.8654 24.2128 43.6989 23.5137C43.6989 23.5137 43.6854 23.4936 43.6728 23.475C43.9558 23.4365 44.2908 23.2847 44.5606 23.1697C44.9972 22.9996 45.3959 23.0381 45.8459 22.8681C46.052 22.7917 46.2578 22.6963 46.4645 22.6031V22.4314C46.2317 22.091 46.0652 21.6355 45.8209 21.3136C45.1656 20.4801 44.4446 19.6658 43.6989 18.9825C43.2997 18.6034 42.7853 18.3583 42.3608 18.0353C42.2072 17.9214 41.9503 17.8653 41.8599 17.6747C41.6282 17.2579 41.4991 16.7091 41.3323 16.2156C40.9597 15.1745 40.5989 14.0189 40.278 12.9179C40.0467 12.1794 39.9052 11.4408 39.6221 10.7582C38.2969 7.53593 36.8571 5.5851 34.6452 3.67071C34.1693 3.27228 33.6036 3.10182 32.9996 2.89329C32.6776 2.87345 32.3564 2.8366 32.0349 2.81798C31.8288 2.68477 31.6228 2.3244 31.4431 2.15393C30.7097 1.47207 28.8201 -0.00582881 28.2796 1.94581C27.9323 3.17834 28.794 4.39063 29.0899 5.01621C29.3084 5.45148 29.5917 5.94506 29.7453 6.43702C29.8354 6.75932 29.8612 7.10106 29.9516 7.44158C30.1571 8.27528 30.3498 9.20414 30.6204 9.98156C30.7614 10.3796 30.9155 10.797 31.0955 11.1554C31.1993 11.3651 31.3788 11.4586 31.4175 11.8008C31.2381 12.1794 31.2241 12.7479 31.1213 13.222C30.6586 15.3635 30.8383 18.0165 31.4944 19.5891C31.6997 20.0628 32.1891 21.1055 32.8449 20.7066C33.4236 20.366 33.295 19.2858 33.4621 18.3388C33.5005 18.1098 33.4747 17.9596 33.5516 17.8082V17.8465C33.7316 18.3763 33.9121 18.8867 34.0792 19.4191C34.4784 20.3467 35.1722 21.3135 35.7515 21.9572C36.0592 22.2996 36.3037 22.8861 36.6895 23.0952V23.0379H36.6642C36.5868 22.8679 36.4714 22.7915 36.3683 22.6595C36.137 22.3181 35.8803 21.901 35.6995 21.5222C35.1596 20.4614 34.6832 19.2858 34.2597 18.0731C34.0534 17.4842 33.8737 16.8405 33.7063 16.2534C33.6294 16.0271 33.6294 15.685 33.5005 15.5716C33.3071 15.988 33.0249 16.3486 32.8837 16.8587C32.6391 17.6745 32.6136 18.6787 32.5229 19.7215C32.4718 19.7413 32.4976 19.7215 32.4718 19.7592C32.0607 19.6076 31.9192 18.9824 31.7645 18.4535C31.3788 17.1062 31.3139 14.9459 31.6489 13.3918C31.7384 12.9946 32.1253 11.7438 31.9704 11.3648C31.8926 11.0033 31.6357 10.7968 31.4944 10.5113C31.3277 10.1513 31.1466 9.69744 31.032 9.29861C30.7232 8.23775 30.5679 7.06231 30.2346 6.00146C30.0802 5.50788 29.8096 4.99609 29.5917 4.54219C29.3468 4.03039 29.077 3.67043 28.8839 3.06469C28.8201 2.85576 28.73 2.51442 28.8325 2.28768C28.8578 2.13584 28.91 2.07874 29.013 2.04068C29.1792 1.83216 29.6557 2.09697 29.8225 2.21075C30.2986 2.49418 30.6973 2.76101 31.0955 3.15822C31.2757 3.34811 31.4686 3.70808 31.6997 3.80364H31.9703C32.3817 3.93523 32.8449 3.84049 33.231 4.01176C33.9121 4.33366 34.5293 4.8074 35.0827 5.3192C36.7667 6.89225 38.1557 9.12895 39.094 11.8005C39.2487 12.2358 39.3136 12.6342 39.4548 13.0881C39.7249 14.0186 40.0596 14.9661 40.3291 15.8748C40.5989 16.7656 40.8567 17.6744 41.243 18.4146C41.4353 18.8119 42.2072 19.0204 42.5545 19.229C42.8111 19.399 43.2103 19.5509 43.442 19.759C43.8791 20.1563 44.3155 20.6118 44.7276 21.0484C44.9329 21.2758 45.5761 21.7491 45.6149 22.1287" fill="#00758F"/>
<path fill-rule="evenodd" clip-rule="evenodd" d="M32.4974 5.65863C32.2792 5.65863 32.1253 5.6975 31.9701 5.75379V5.79184H31.9951C32.099 6.09431 32.2792 6.30445 32.4067 6.56926C32.5103 6.87254 32.6004 7.17459 32.7032 7.47827C32.7158 7.45965 32.7282 7.4398 32.7282 7.4398C32.9095 7.25112 32.9994 6.94825 32.9994 6.49273C32.9216 6.35911 32.9095 6.22751 32.8447 6.0943C32.7677 5.90521 32.6004 5.81047 32.4974 5.65863Z" fill="#00758F"/>
</g>
<defs>
<clipPath id="clip0_319_32">
<rect width="48" height="48" fill="white"/>
</clipPath>
</defs>
</svg>
