<svg width="48" height="48" viewBox="0 0 48 48" fill="none" xmlns="http://www.w3.org/2000/svg">
<g clip-path="url(#clip0_319_45)">
<path d="M23.7291 47.8615C23.5666 47.8615 23.415 47.7909 23.2741 47.6672L21.8332 46.2715C21.6165 46.0771 21.7249 46.0064 21.7899 45.9711C22.0824 45.8122 22.1366 45.7767 22.4399 45.4942C22.4724 45.4587 22.5158 45.4765 22.5483 45.5118L23.6533 46.5895C23.6966 46.6248 23.7508 46.6248 23.7833 46.5895L28.106 42.5083C28.1493 42.4729 28.171 42.4022 28.171 42.314V34.1693C28.171 34.0807 28.1493 34.0103 28.106 33.9748L23.7833 29.9113C23.74 29.8758 23.6858 29.8758 23.6533 29.9113L19.3306 33.9748C19.2873 34.0101 19.2656 34.0985 19.2656 34.1691V42.3138C19.2656 42.3846 19.2873 42.4728 19.3306 42.5083L20.5115 43.6213C21.1507 44.1513 21.5516 43.5329 21.5516 42.9146V34.8758C21.5516 34.7699 21.6057 34.6638 21.6816 34.6638H22.2341C22.2991 34.6638 22.3641 34.7521 22.3641 34.8758V42.9146C22.3641 44.3102 21.8982 45.123 21.0857 45.123C20.8365 45.123 20.6416 45.123 20.089 44.6813L18.9515 43.6213C18.6698 43.3564 18.4965 42.8615 18.4965 42.3315V34.1868C18.4965 33.6568 18.6698 33.162 18.9515 32.8971L23.2741 28.8159C23.545 28.5685 23.9134 28.5685 24.1842 28.8159L28.5068 32.8971C28.7885 33.162 28.9619 33.6568 28.9619 34.1868V42.3315C28.9619 42.8615 28.7885 43.3564 28.5068 43.6213L24.1842 47.7025C24.0433 47.8086 23.8807 47.8615 23.7291 47.8615ZM25.0617 42.2609C23.1658 42.2609 22.7758 40.8475 22.7758 39.6461C22.7758 39.5401 22.8299 39.4341 22.9058 39.4341H23.4691C23.5341 39.4341 23.5883 39.5047 23.5883 39.6108C23.675 40.5471 23.9241 41.0065 25.0725 41.0065C25.9825 41.0065 26.3727 40.6708 26.3727 39.8757C26.3727 39.4164 26.2642 39.0808 24.845 38.8511C23.6641 38.6566 22.9274 38.2327 22.9274 36.6957C22.9274 35.2645 23.6642 34.4164 24.8992 34.4164C26.2859 34.4164 26.9685 35.1939 27.0552 36.8898C27.0552 36.943 27.0443 36.9959 27.0226 37.0489C27.0009 37.0843 26.9685 37.1196 26.9359 37.1196H26.3726C26.3184 37.1196 26.2642 37.0489 26.2534 36.9606C26.1234 35.989 25.7876 35.6709 24.8992 35.6709C23.9025 35.6709 23.7833 36.2363 23.7833 36.6602C23.7833 37.1726 23.9241 37.3316 25.2675 37.6142C26.6001 37.897 27.2285 38.3034 27.2285 39.8227C27.2176 41.3775 26.4376 42.2609 25.0617 42.2609Z" fill="#539E43"/>
<path d="M10.3169 16.0069C10.3169 15.6889 10.2086 15.3884 10.0353 15.2294L5.44175 10.9186C5.36582 10.8478 5.27921 10.8125 5.19259 10.7948H5.14919C5.06258 10.7948 4.97587 10.8478 4.90004 10.9186L0.306523 15.2294C0.133108 15.3884 0.0248413 15.6888 0.0248413 16.0069L0.0357149 27.5968C0.0357149 27.7557 0.0898952 27.9147 0.176509 27.9855C0.263216 28.0739 0.371483 28.0739 0.44741 27.9855L3.17752 25.4414C3.35084 25.2824 3.4592 24.982 3.4592 24.664V19.24C3.4592 18.9221 3.56747 18.6217 3.74088 18.4627L4.90004 17.3673C4.98675 17.2789 5.08423 17.2434 5.18172 17.2434C5.27921 17.2434 5.37669 17.2789 5.45262 17.3673L6.61178 18.4627C6.7852 18.6217 6.89346 18.9219 6.89346 19.24V24.664C6.89346 24.982 7.00182 25.2824 7.17514 25.4414L9.90525 27.9855C9.99196 28.0739 10.1002 28.0739 10.1869 27.9855C10.2736 27.9147 10.3278 27.7557 10.3278 27.5968L10.3169 16.0069ZM32.3962 0.0530218C32.3096 -0.0177553 32.2012 -0.0177553 32.1253 0.0530218C32.0387 0.141378 31.9845 0.282627 31.9845 0.441608V11.9257C31.9845 12.0316 31.9521 12.1376 31.887 12.2083C31.822 12.2612 31.757 12.2612 31.692 12.2083L30.5436 11.1306C30.4595 11.0525 30.3642 11.0113 30.2674 11.0113C30.1705 11.0113 30.0753 11.0525 29.9911 11.1306L25.3975 15.4592C25.2242 15.6182 25.1159 15.9186 25.1159 16.2365V24.8759C25.1159 25.1939 25.2242 25.4944 25.3975 25.6534L29.9911 29.9819C30.0753 30.0601 30.1705 30.1012 30.2674 30.1012C30.3642 30.1012 30.4595 30.0601 30.5436 29.9819L35.1372 25.6534C35.3105 25.4944 35.4188 25.194 35.4188 24.8759V3.33919C35.4188 3.00349 35.3105 2.70326 35.1372 2.54413L32.3962 0.0530218ZM31.9737 22.0315C31.9737 22.1199 31.952 22.1905 31.9086 22.2258L30.3378 23.7098C30.3159 23.7273 30.2918 23.7364 30.2674 23.7364C30.2429 23.7364 30.2188 23.7273 30.1969 23.7098L28.6261 22.2258C28.5827 22.1905 28.561 22.1021 28.561 22.0315V19.0633C28.561 18.975 28.5827 18.9043 28.6261 18.869L30.1969 17.3848C30.2188 17.3674 30.2429 17.3583 30.2674 17.3583C30.2918 17.3583 30.3159 17.3674 30.3378 17.3848L31.9086 18.869C31.952 18.9042 31.9737 18.9927 31.9737 19.0633V22.0315ZM47.6826 18.9927C47.856 18.8337 47.9535 18.5333 47.9535 18.2152V16.1128C47.9535 15.7949 47.8452 15.4945 47.6826 15.3355L43.1216 11.0247C43.0375 10.9465 42.9423 10.9055 42.8454 10.9055C42.7485 10.9055 42.6533 10.9465 42.5691 11.0247L37.9756 15.3531C37.8022 15.5121 37.6939 15.8125 37.6939 16.1306V24.77C37.6939 25.0879 37.8022 25.3883 37.9756 25.5473L42.5366 29.7875C42.71 29.9465 42.9158 29.9465 43.0783 29.7875L45.8409 27.279C45.9276 27.2082 45.9818 27.0492 45.9818 26.8902C45.9818 26.7312 45.9276 26.5723 45.8409 26.5015L41.2257 22.1729C41.1391 22.0847 41.0849 21.9433 41.0849 21.7843V19.0812C41.0849 18.9222 41.1391 18.7632 41.2257 18.6925L42.6666 17.3497C42.7088 17.3064 42.7576 17.2834 42.8075 17.2834C42.8573 17.2834 42.9061 17.3064 42.9483 17.3497L44.3892 18.6925C44.4759 18.7808 44.53 18.9221 44.53 19.0812V21.2013C44.53 21.3603 44.5842 21.5193 44.6708 21.5899C44.7575 21.6782 44.8658 21.6782 44.9525 21.5899L47.6826 18.9927Z" fill="#333333"/>
<path d="M42.775 18.5864C42.7911 18.5691 42.8099 18.5599 42.8291 18.5599C42.8484 18.5599 42.8672 18.5691 42.8833 18.5864L43.7609 19.4168C43.7934 19.4519 43.815 19.505 43.815 19.5757V21.2365C43.815 21.3071 43.7934 21.3602 43.7609 21.3955L42.8833 22.2258C42.8672 22.2431 42.8484 22.2523 42.8291 22.2523C42.8099 22.2523 42.7911 22.2431 42.775 22.2258L41.8974 21.3955C41.8649 21.3602 41.8433 21.3071 41.8433 21.2365V19.5757C41.8433 19.505 41.8649 19.4519 41.8974 19.4168L42.775 18.5864Z" fill="#539E43"/>
<path d="M17.9981 11.06C17.9139 10.9818 17.8187 10.9407 17.7218 10.9407C17.625 10.9407 17.5298 10.9818 17.4456 11.06L12.8846 15.3529C12.7112 15.5119 12.6137 15.8123 12.6137 16.1302V24.7345C12.6137 25.0524 12.7221 25.3528 12.8846 25.5118L17.4456 29.805C17.5298 29.8832 17.625 29.9243 17.7218 29.9243C17.8187 29.9243 17.9139 29.8832 17.9981 29.805L22.5592 25.5118C22.7325 25.3528 22.8301 25.0524 22.8301 24.7345V16.1304C22.8301 15.8124 22.7216 15.5121 22.5592 15.3531L17.9981 11.06Z" fill="url(#paint0_linear_319_45)"/>
</g>
<defs>
<linearGradient id="paint0_linear_319_45" x1="709.247" y1="342.906" x2="-190.082" y2="1209.43" gradientUnits="userSpaceOnUse">
<stop stop-color="#41873F"/>
<stop offset="0.3288" stop-color="#418B3D"/>
<stop offset="0.6352" stop-color="#419637"/>
<stop offset="0.9319" stop-color="#3FA92D"/>
<stop offset="1" stop-color="#3FAE2A"/>
</linearGradient>
<clipPath id="clip0_319_45">
<rect width="48" height="48" fill="white"/>
</clipPath>
</defs>
</svg>
