<svg width="23" height="23" viewBox="0 0 23 23" fill="none" xmlns="http://www.w3.org/2000/svg">
<path d="M11.4861 10.1707C12.7408 10.1707 13.9673 9.87244 15.0105 9.31366C16.0537 8.75487 16.8668 7.96065 17.3469 7.03142C17.8271 6.1022 17.9527 5.07971 17.7079 4.09325C17.4631 3.10678 16.859 2.20066 15.9718 1.48946C15.0846 0.778267 13.9543 0.293935 12.7237 0.0977158C11.4931 -0.0985034 10.2176 0.00220338 9.05846 0.387101C7.8993 0.771999 6.90855 1.4238 6.21149 2.26008C5.51443 3.09636 5.14238 4.07956 5.14238 5.08535C5.14238 6.43406 5.81073 7.72754 7.00041 8.68123C8.19009 9.63492 9.80364 10.1707 11.4861 10.1707Z" fill="#E8986B"/>
<path d="M21.0017 22.884C21.4223 22.884 21.8257 22.7501 22.1231 22.5116C22.4205 22.2732 22.5876 21.9499 22.5876 21.6127C22.5876 19.2524 21.418 16.9888 19.336 15.3199C17.2541 13.6509 14.4304 12.7133 11.4861 12.7133C8.54178 12.7133 5.71807 13.6509 3.63614 15.3199C1.5542 16.9888 0.384583 19.2524 0.384583 21.6127C0.384583 21.9499 0.551671 22.2732 0.849091 22.5116C1.14651 22.7501 1.5499 22.884 1.97051 22.884H21.0017Z" fill="#E8986B"/>
</svg>
