<svg width="48" height="48" viewBox="0 0 48 48" fill="none" xmlns="http://www.w3.org/2000/svg">
<g clip-path="url(#clip0_319_69)">
<path d="M43.6551 2.50301C42.9799 4.11528 42.1235 5.64632 41.0919 7.05237C36.5783 2.5405 30.4517 0.00335693 24.0688 0.00335693C10.8653 0.00335693 0 10.8768 0 24.0937C0 30.6866 2.7007 36.9982 7.47695 41.5476L8.36468 42.3349C12.7033 45.9907 18.1985 48.0029 23.8687 48.0029C36.422 48.0029 46.9747 38.1668 47.8687 25.631C48.5251 19.4944 46.7247 11.733 43.6551 2.50301ZM10.8966 41.685C10.509 42.1662 9.91508 42.4474 9.29617 42.4474C8.16463 42.4474 7.23939 41.5163 7.23939 40.3852C7.23939 39.2541 8.17088 38.323 9.29617 38.323C9.76504 38.323 10.2277 38.4855 10.5903 38.7854C11.4717 39.4978 11.6093 40.8039 10.8966 41.685ZM43.5551 34.4735C37.616 42.3912 24.9315 39.7228 16.7981 40.104C16.7981 40.104 15.354 40.1915 13.9036 40.429C13.9036 40.429 14.4475 40.1977 15.1539 39.929C20.8617 37.9418 23.5624 37.5544 27.032 35.7734C33.565 32.4488 40.0229 25.1748 41.367 17.6071C38.8789 24.8874 31.3394 31.1428 24.4689 33.6862C19.7614 35.4234 11.2592 37.1107 11.2592 37.1107L10.9153 36.9295C5.12634 34.1111 4.95129 21.5691 15.4728 17.5197C20.0802 15.7449 24.4876 16.7198 29.4639 15.5324C34.7778 14.2701 40.9232 10.2832 43.4238 5.0839C46.2245 13.4015 49.5942 26.4247 43.5551 34.4735Z" fill="#77BC1F"/>
</g>
<defs>
<clipPath id="clip0_319_69">
<rect width="48" height="48" fill="white"/>
</clipPath>
</defs>
</svg>
