<svg width="104" height="196" viewBox="0 0 104 196" fill="none" xmlns="http://www.w3.org/2000/svg">
<g clip-path="url(#clip0_1_2)">
<path d="M29.7318 179.177L25.7818 188.668L19.3418 185.247L23.2718 175.938L29.7318 179.177Z" fill="#FCC9A7"/>
<path d="M27.9518 188.114C27.9518 187.544 27.4618 187.174 26.9718 187.384C26.0118 187.794 24.4319 188.144 22.5419 187.294C20.5819 186.414 20.2219 184.964 20.2119 184.014C20.2119 183.514 19.8519 183.134 19.4019 183.204L5.03184 185.274C4.16184 185.404 3.34185 185.904 2.76185 186.684C2.21185 187.414 2.47185 188.474 3.24185 188.714L24.6918 195.234C25.5318 195.494 26.4518 194.884 26.7018 193.904L27.9118 189.104C27.9318 189.024 27.9418 188.944 27.9418 188.864L27.9518 188.114Z" fill="#1F252A"/>
<path d="M87.9615 156.156L96.9615 161.116L92.8715 167.146L84.0415 162.226L87.9615 156.156Z" fill="#FCC9A7"/>
<path d="M96.6417 158.896C96.0717 158.836 95.6517 159.286 95.8017 159.786C96.1017 160.776 96.2817 162.396 95.2317 164.176C94.1417 166.026 92.6617 166.236 91.7117 166.126C91.2117 166.076 90.8017 166.386 90.8117 166.836L91.3017 181.346C91.3317 182.226 91.7417 183.096 92.4517 183.756C93.1117 184.376 94.2017 184.246 94.5217 183.496L103.332 162.886C103.682 162.076 103.172 161.096 102.232 160.746L97.5917 159.016C97.5117 158.986 97.4317 158.966 97.3517 158.956L96.6417 158.896Z" fill="#1F252A"/>
<path d="M34.4917 87.5L37.9617 109.76L55.5017 141.29L85.7017 167.55L92.7417 155.1L68.7917 132.76L54.7417 87.88L34.4917 87.5Z" fill="#092330"/>
<path d="M62.9916 86.2266C62.9916 86.2266 66.4816 92.8265 61.0616 103.367L44.2316 135.487L31.4016 184.167L18.6616 179.717L27.8116 130.487L44.0316 92.0666L34.4916 87.4966L62.9916 86.2266Z" fill="#0C2C40"/>
<path d="M26.3015 23.5963C28.5215 26.0263 32.2915 26.1963 34.7115 23.9863C37.1415 21.7663 37.3115 17.9963 35.1015 15.5663C32.8815 13.1363 29.1215 12.9663 26.6815 15.1763C24.2515 17.4063 24.0815 21.1663 26.3015 23.5963Z" fill="#FCC9A7"/>
<path d="M21.5415 26.6541L26.7215 20.4141L30.8515 24.5641L25.9915 30.5141L21.5415 26.6541Z" fill="#FCC9A7"/>
<path d="M33.2314 12.0521L28.4814 18.4121C27.8614 19.2421 27.8814 20.3921 28.5314 21.1921L32.3814 25.9421C33.2814 27.0521 34.9614 27.0621 35.8714 25.9721L41.2414 19.5821C41.9814 18.7021 41.9414 17.4021 41.1514 16.5621L36.6814 11.8421C35.7214 10.8321 34.0714 10.9221 33.2314 12.0521Z" fill="#1C2226"/>
<path d="M38.1416 34.4703L19.3116 43.9203L29.6516 27.9703L22.8316 22.0703L1.2716 51.6103C-0.688396 54.1503 0.0716051 57.8503 2.8816 59.4003C4.3116 60.1903 6.0316 60.2703 7.5316 59.6103L35.4516 48.5203L38.1416 34.4703Z" fill="#F7ECE7"/>
<path d="M31.4014 43.5422C31.4014 43.5422 34.7314 69.6522 34.4914 87.5022C34.4914 87.5022 44.4814 91.9022 65.6614 85.4722L60.4214 36.9222L50.2214 33.4922L38.1414 34.4722L31.4014 43.5422Z" fill="#F7ECE7"/>
<path d="M41.5613 31.927L41.8213 33.627C41.8413 33.747 41.8013 33.877 41.7113 33.967L39.1013 36.737C38.8613 36.987 38.4413 36.8471 38.4013 36.5071L38.1313 34.467C38.1113 34.337 38.1613 34.207 38.2613 34.117L40.8713 31.687C41.1213 31.467 41.5213 31.597 41.5613 31.927Z" fill="#FCF3F0"/>
<path d="M45.0512 36.3241C48.1512 36.0741 50.4612 33.344 50.2112 30.244L49.4612 21.1641L38.2212 22.0841L40.5412 34.6341C40.9112 36.2341 41.9412 36.5741 45.0512 36.3241Z" fill="#FCC9A7"/>
<path d="M49.8415 24.3381C49.8415 24.3381 47.4215 31.2181 42.5115 30.3681C38.0015 29.5881 38.2215 22.0781 38.2215 22.0781L49.8415 24.3381Z" fill="#F4BE9A"/>
<path d="M43.2914 27.87L44.2914 27.7601C49.2714 27.2201 52.8814 22.7401 52.3414 17.7601L51.7314 12.0801C51.1914 7.10007 46.7114 3.49005 41.7314 4.03005L40.7314 4.14005C35.7514 4.68005 32.1414 9.16007 32.6814 14.1401L33.2914 19.8201C33.8314 24.8101 38.3114 28.41 43.2914 27.87Z" fill="#FCC9A7"/>
<path d="M43.2914 27.87L44.2914 27.7601C49.2714 27.2201 52.8814 22.7401 52.3414 17.7601L51.7314 12.0801C51.1914 7.10007 46.7114 3.49005 41.7314 4.03005L40.7314 4.14005C35.7514 4.68005 32.1414 9.16007 32.6814 14.1401L33.2914 19.8201C33.8314 24.8101 38.3114 28.41 43.2914 27.87Z" fill="#FCC9A7"/>
<path d="M52.1414 15.9607C51.4614 15.8907 48.6114 18.0507 47.8714 17.1107C46.8514 15.8107 45.9214 13.4407 47.2414 10.9807C47.4614 10.5707 47.5214 10.0907 47.3814 9.64069C47.1214 8.83069 46.4214 7.89068 44.4914 8.57068C41.4014 9.66068 34.4514 13.1607 32.4414 8.15067C29.9014 1.84067 49.8814 3.60068 49.8814 3.60068L54.4314 10.1807L52.4814 19.5607L52.1414 15.9607Z" fill="#1C2226"/>
<path d="M49.3615 16.9108C49.5515 18.6908 51.1515 19.9808 52.9315 19.7808C54.7115 19.5908 56.0015 17.9908 55.8015 16.2108C55.6115 14.4308 54.0115 13.1408 52.2315 13.3408C50.4515 13.5408 49.1715 15.1308 49.3615 16.9108Z" fill="#FCC9A7"/>
<path d="M44.0312 38.2487L46.5812 77.5587L41.8312 82.0188L39.0112 77.6988L41.8312 37.4688L44.0312 38.2487Z" fill="#0C2C40"/>
<path d="M40.2314 35.5413L40.6214 35.0013L40.5215 34.5312H46.1414L46.5815 36.0013L42.8414 39.3013L40.2314 35.5413Z" fill="#0C2C40"/>
<path d="M49.8512 29.7113L44.5312 33.3314C43.9312 33.7414 43.8512 34.6014 44.3712 35.1114L48.5512 39.2213C49.0212 39.6813 49.7912 39.6613 50.2312 39.1613L54.4412 34.4313C54.8512 33.9713 54.8312 33.2614 54.3912 32.8314L51.3112 29.8213C50.9212 29.4513 50.3112 29.4013 49.8512 29.7113Z" fill="#FCF3F0"/>
<path d="M27.3116 31.5813L19.3516 26.7812" stroke="#EADDD8" stroke-width="0.7599" stroke-miterlimit="10" stroke-linecap="round" stroke-linejoin="round"/>
<path d="M41.8117 69.2777L39.0217 99.1077C38.9117 100.228 39.6817 101.248 40.7917 101.468L75.0017 108.008C76.2617 108.248 77.4517 107.368 77.5917 106.098L80.7217 77.7477C80.8417 76.6477 80.1217 75.6277 79.0417 75.3677L44.4917 67.3577C43.2017 67.0477 41.9417 67.9577 41.8117 69.2777Z" fill="#AFAFAF"/>
<path d="M44.2417 69.8077L41.4517 99.6377C41.3517 100.758 42.1117 101.778 43.2217 101.998L77.4317 108.538C78.6917 108.778 79.8817 107.898 80.0217 106.628L83.1517 78.2777C83.2717 77.1777 82.5517 76.1577 81.4717 75.8977L46.9217 67.8777C45.6217 67.5777 44.3617 68.4877 44.2417 69.8077Z" fill="#D1D1D1"/>
<path d="M57.1515 97.2651C54.4015 94.7451 50.1215 94.935 47.6015 97.685C45.0815 100.435 45.2715 104.715 48.0215 107.235C50.7715 109.755 55.0515 109.565 57.5715 106.815C60.0915 104.055 59.9015 99.7851 57.1515 97.2651Z" fill="#FCC9A7"/>
<path d="M62.2214 93.3241L57.0014 100.904L51.9214 96.6241L56.8014 89.4141L62.2214 93.3241Z" fill="#FCC9A7"/>
<path d="M60.4317 36.9219C60.4317 36.9219 68.0817 37.6919 70.3017 50.2019L79.1017 68.4819C79.3417 69.2819 79.5017 70.1019 79.5817 70.9219L61.0717 97.5119L52.7217 92.5619L67.6917 68.5619L58.6017 54.1719L60.4317 36.9219Z" fill="#F7ECE7"/>
<path d="M55.4414 88.9688L63.8714 93.4887" stroke="#EADDD8" stroke-width="0.7599" stroke-miterlimit="10" stroke-linecap="round" stroke-linejoin="round"/>
<path d="M63.0516 61.2238L57.6616 51.8438" stroke="#EADDD8" stroke-width="0.7599" stroke-miterlimit="10" stroke-linecap="round" stroke-linejoin="round"/>
<path d="M34.5015 10.38C30.6815 8.65 31.4815 4.19 32.3515 2.78C32.3515 2.78 32.5215 5.29001 34.2315 4.71001C34.2315 4.71001 34.0015 0.97 39.0115 0C39.0115 0 37.1615 3.36 43.7515 2.72C51.8415 1.93 52.3115 7.05 51.8615 13.41L49.3815 11.63L47.4615 7.20001H40.9115L34.5015 10.38Z" fill="#1C2226"/>
</g>
<defs>
<clipPath id="clip0_1_2">
<rect width="104" height="196" fill="white"/>
</clipPath>
</defs>
</svg>
